<svg xmlns="http://www.w3.org/2000/svg" xmlns:xlink="http://www.w3.org/1999/xlink" version="1.1" width="256" height="256" viewBox="0 0 256 256" xml:space="preserve">

<defs>
</defs>
<g style="stroke: none; stroke-width: 0; stroke-dasharray: none; stroke-linecap: butt; stroke-linejoin: miter; stroke-miterlimit: 10; fill: none; fill-rule: nonzero; opacity: 1;" transform="translate(1.4065934065934016 1.4065934065934016) scale(2.81 2.81)" >
	<path d="M 16.754 60.239 L 3.451 73.542 c -3.271 3.271 -3.271 8.575 0 11.847 c 3.271 3.271 8.575 3.271 11.847 0 l 13.303 -13.303 c 0.143 -3.187 1.679 -6.662 4.483 -9.466 c 2.804 -2.804 6.279 -4.34 9.466 -4.483 l 3.926 -3.926 L 34.63 42.363 l -3.926 3.926 L 16.754 60.239 z" style="stroke: none; stroke-width: 1; stroke-dasharray: none; stroke-linecap: butt; stroke-linejoin: miter; stroke-miterlimit: 10; fill: rgb(247,171,49); fill-rule: nonzero; opacity: 1;" transform=" matrix(1 0 0 1 0 0) " stroke-linecap="round" />
	<polyline points="55.58,26.5 37.17,44.91 43.66,51.39 62.07,32.99 " style="stroke: none; stroke-width: 1; stroke-dasharray: none; stroke-linecap: butt; stroke-linejoin: miter; stroke-miterlimit: 10; fill: rgb(204,204,204); fill-rule: nonzero; opacity: 1;" transform="  matrix(1 0 0 1 0 0) "/>
	<path d="M 87.977 29.145 l -3.599 -3.599 l -0.258 0.258 c -1.238 1.238 -3.25 1.439 -4.6 0.324 c -1.549 -1.279 -1.63 -3.578 -0.244 -4.964 l 0.36 -0.36 l -11.53 -11.53 l -1.372 -1.372 c -7.657 -7.657 -20.071 -7.657 -27.728 0 c 8.621 -1.299 17.409 9.111 14.225 16.248 l 11.53 11.53 l 1.012 -1.012 l 0.258 -0.258 c 1.238 -1.238 3.25 -1.439 4.6 -0.324 c 1.549 1.279 1.631 3.578 0.244 4.964 l -0.36 0.36 l 3.599 3.599 c 1.367 1.367 3.584 1.367 4.951 0 l 8.913 -8.913 C 89.344 32.729 89.344 30.512 87.977 29.145 z" style="stroke: none; stroke-width: 1; stroke-dasharray: none; stroke-linecap: butt; stroke-linejoin: miter; stroke-miterlimit: 10; fill: rgb(204,204,204); fill-rule: nonzero; opacity: 1;" transform=" matrix(1 0 0 1 0 0) " stroke-linecap="round" />
	<path d="M 70.513 39.41 l 3.599 3.599 c 1.367 1.367 3.584 1.367 4.951 0 l 8.913 -8.913 c 1.367 -1.367 1.367 -3.584 0 -4.951 l -3.599 -3.599 L 70.513 39.41 z" style="stroke: none; stroke-width: 1; stroke-dasharray: none; stroke-linecap: butt; stroke-linejoin: miter; stroke-miterlimit: 10; fill: rgb(204,204,204); fill-rule: nonzero; opacity: 1;" transform=" matrix(1 0 0 1 0 0) " stroke-linecap="round" />
	<rect x="58.05" y="11.86" rx="0" ry="0" width="16.58" height="21.04" style="stroke: none; stroke-width: 1; stroke-dasharray: none; stroke-linecap: butt; stroke-linejoin: miter; stroke-miterlimit: 10; fill: rgb(204,204,204); fill-rule: nonzero; opacity: 1;" transform=" matrix(0.7071 0.7071 -0.7071 0.7071 35.2542 -40.3517) "/>
	<path d="M 9.375 88.837 c -2.401 0 -4.802 -0.913 -6.63 -2.741 c -3.656 -3.656 -3.656 -9.605 0 -13.261 l 31.179 -31.178 c 0.391 -0.391 1.023 -0.391 1.414 0 l 11.847 11.846 c 0.188 0.188 0.293 0.441 0.293 0.707 c 0 0.266 -0.105 0.52 -0.293 0.707 l -3.926 3.926 c -0.176 0.177 -0.413 0.28 -0.662 0.292 c -3.069 0.139 -6.279 1.666 -8.804 4.192 s -4.053 5.735 -4.192 8.804 c -0.011 0.249 -0.115 0.485 -0.292 0.662 L 16.005 86.096 C 14.177 87.924 11.776 88.837 9.375 88.837 z M 34.63 43.777 L 17.462 60.946 l 0 0 L 4.158 74.249 c -2.876 2.876 -2.876 7.557 0 10.433 c 2.877 2.875 7.557 2.875 10.432 0 l 13.035 -13.036 c 0.266 -3.44 1.983 -6.966 4.751 -9.734 c 2.768 -2.769 6.295 -4.486 9.734 -4.751 l 2.951 -2.951 L 34.63 43.777 z M 16.754 60.239 h 0.01 H 16.754 z" style="stroke: none; stroke-width: 1; stroke-dasharray: none; stroke-linecap: butt; stroke-linejoin: miter; stroke-miterlimit: 10; fill: rgb(0,0,0); fill-rule: nonzero; opacity: 1;" transform=" matrix(1 0 0 1 0 0) " stroke-linecap="round" />
	<path d="M 8.138 81.702 c -0.256 0 -0.512 -0.098 -0.707 -0.293 c -0.391 -0.391 -0.391 -1.023 0 -1.414 l 28.77 -28.771 c 0.391 -0.391 1.023 -0.391 1.414 0 s 0.391 1.023 0 1.414 L 8.845 81.409 C 8.65 81.604 8.394 81.702 8.138 81.702 z" style="stroke: none; stroke-width: 1; stroke-dasharray: none; stroke-linecap: butt; stroke-linejoin: miter; stroke-miterlimit: 10; fill: rgb(0,0,0); fill-rule: nonzero; opacity: 1;" transform=" matrix(1 0 0 1 0 0) " stroke-linecap="round" />
	<path d="M 43.661 52.394 c -0.256 0 -0.512 -0.098 -0.707 -0.293 l -6.486 -6.486 c -0.188 -0.188 -0.293 -0.442 -0.293 -0.707 c 0 -0.265 0.105 -0.52 0.293 -0.707 l 18.407 -18.407 c 0.391 -0.391 1.023 -0.391 1.414 0 c 0.391 0.391 0.391 1.023 0 1.414 l -17.7 17.7 l 5.072 5.072 l 17.7 -17.7 c 0.391 -0.391 1.023 -0.391 1.414 0 c 0.391 0.391 0.391 1.023 0 1.414 L 44.368 52.101 C 44.173 52.296 43.917 52.394 43.661 52.394 z" style="stroke: none; stroke-width: 1; stroke-dasharray: none; stroke-linecap: butt; stroke-linejoin: miter; stroke-miterlimit: 10; fill: rgb(0,0,0); fill-rule: nonzero; opacity: 1;" transform=" matrix(1 0 0 1 0 0) " stroke-linecap="round" />
	<path d="M 76.589 45.034 c -1.202 0 -2.333 -0.468 -3.183 -1.318 l -3.6 -3.599 c -0.188 -0.188 -0.293 -0.442 -0.293 -0.708 c 0 -0.265 0.105 -0.52 0.293 -0.707 l 0.36 -0.36 c 0.468 -0.467 0.719 -1.115 0.687 -1.776 c -0.031 -0.67 -0.337 -1.277 -0.86 -1.709 c -0.921 -0.762 -2.351 -0.646 -3.256 0.26 l -1.27 1.27 c -0.391 0.391 -1.023 0.391 -1.414 0 l -11.531 -11.53 c -0.293 -0.293 -0.375 -0.736 -0.206 -1.115 c 1.224 -2.742 0.496 -6.297 -1.946 -9.509 C 47.453 10.4 43.053 8.303 39.154 8.89 c -0.422 0.066 -0.847 -0.152 -1.042 -0.538 c -0.195 -0.386 -0.12 -0.853 0.186 -1.158 c 3.892 -3.892 9.067 -6.036 14.571 -6.036 S 63.548 3.302 67.44 7.194 l 12.903 12.902 c 0.188 0.188 0.293 0.442 0.293 0.707 s -0.105 0.52 -0.293 0.707 l -0.36 0.36 c -0.468 0.468 -0.719 1.116 -0.687 1.777 c 0.031 0.67 0.337 1.277 0.86 1.709 c 0.92 0.76 2.35 0.644 3.256 -0.26 l 0.26 -0.259 c 0.389 -0.39 1.023 -0.39 1.413 0.001 l 3.599 3.599 c 0.851 0.85 1.318 1.981 1.318 3.182 c 0 1.202 -0.468 2.333 -1.318 3.183 l -8.914 8.913 C 78.921 44.566 77.791 45.034 76.589 45.034 z M 71.908 39.39 l 2.912 2.912 c 0.945 0.944 2.591 0.944 3.536 0 l 8.914 -8.913 c 0.473 -0.473 0.732 -1.101 0.732 -1.769 c 0 -0.668 -0.26 -1.295 -0.732 -1.768 l 0 0 l -2.923 -2.923 c -1.625 1.228 -3.917 1.249 -5.464 -0.03 c -0.949 -0.783 -1.526 -1.934 -1.585 -3.156 c -0.051 -1.059 0.29 -2.098 0.943 -2.92 L 66.025 8.608 c -3.514 -3.514 -8.187 -5.45 -13.157 -5.45 c -4.074 0 -7.948 1.3 -11.149 3.705 c 3.767 0.415 7.572 2.65 10.241 6.158 c 2.711 3.565 3.598 7.579 2.44 10.885 L 64.76 34.265 l 0.563 -0.563 c 1.625 -1.627 4.238 -1.798 5.944 -0.388 c 0.949 0.783 1.526 1.934 1.585 3.156 C 72.902 37.529 72.561 38.569 71.908 39.39 z" style="stroke: none; stroke-width: 1; stroke-dasharray: none; stroke-linecap: butt; stroke-linejoin: miter; stroke-miterlimit: 10; fill: rgb(0,0,0); fill-rule: nonzero; opacity: 1;" transform=" matrix(1 0 0 1 0 0) " stroke-linecap="round" />
	<path d="M 76.589 45.034 c -1.202 0 -2.333 -0.468 -3.183 -1.318 l -3.6 -3.599 c -0.188 -0.188 -0.293 -0.442 -0.293 -0.707 c 0 -0.265 0.105 -0.52 0.293 -0.707 l 13.865 -13.864 c 0.188 -0.188 0.441 -0.293 0.707 -0.293 l 0 0 c 0.266 0 0.52 0.105 0.707 0.293 l 3.599 3.599 c 1.755 1.755 1.755 4.61 0 6.365 l -8.914 8.913 C 78.921 44.566 77.791 45.034 76.589 45.034 z M 71.927 39.409 l 2.893 2.892 c 0.945 0.944 2.591 0.944 3.536 0 l 8.914 -8.913 c 0.975 -0.975 0.975 -2.562 0 -3.537 l -2.892 -2.892 L 71.927 39.409 z" style="stroke: none; stroke-width: 1; stroke-dasharray: none; stroke-linecap: butt; stroke-linejoin: miter; stroke-miterlimit: 10; fill: rgb(0,0,0); fill-rule: nonzero; opacity: 1;" transform=" matrix(1 0 0 1 0 0) " stroke-linecap="round" />
	<path d="M 64.76 36.679 c -0.256 0 -0.512 -0.098 -0.707 -0.293 L 52.329 24.664 c -0.188 -0.188 -0.293 -0.442 -0.293 -0.707 s 0.105 -0.52 0.293 -0.707 L 67.205 8.373 c 0.391 -0.391 1.023 -0.391 1.414 0 l 11.723 11.723 c 0.188 0.188 0.293 0.442 0.293 0.707 s -0.105 0.52 -0.293 0.707 L 65.467 36.386 C 65.272 36.581 65.016 36.679 64.76 36.679 z M 54.451 23.956 L 64.76 34.265 l 13.462 -13.462 L 67.912 10.494 L 54.451 23.956 z" style="stroke: none; stroke-width: 1; stroke-dasharray: none; stroke-linecap: butt; stroke-linejoin: miter; stroke-miterlimit: 10; fill: rgb(0,0,0); fill-rule: nonzero; opacity: 1;" transform=" matrix(1 0 0 1 0 0) " stroke-linecap="round" />
</g>
</svg>